HIERARCHY
ROOT Hips
{
    OFFSET   0.000000   0.000000   0.000000
    CHANNELS 6 Xposition Yposition Zposition Zrotation Xrotation Yrotation
    JOINT Chest
    {
        OFFSET   0.000000   8.007230   0.000000
        CHANNELS 3 Zrotation Xrotation Yrotation
        JOINT Chest2
        {
            OFFSET   0.000000  22.077100   0.000000
            CHANNELS 3 Zrotation Xrotation Yrotation
            JOINT Neck
            {
                OFFSET   0.000000  23.254700   0.000000
                CHANNELS 3 Zrotation Xrotation Yrotation
                JOINT Head
                {
                    OFFSET   0.000010  14.370000   1.956610
                    CHANNELS 3 Zrotation Xrotation Yrotation
                    End Site
                    {
                        OFFSET   0.000000  19.566000   0.000000
                    }
                }
            }
            JOINT LeftCollar
            {
                OFFSET   3.911900  19.017000  -0.467063
                CHANNELS 3 Zrotation Xrotation Yrotation
                JOINT LeftShoulder
                {
                    OFFSET  10.383700   0.000000   0.000000
                    CHANNELS 3 Zrotation Xrotation Yrotation
                    JOINT LeftElbow
                    {
                        OFFSET  26.662100   0.001671   0.000522
                        CHANNELS 3 Zrotation Xrotation Yrotation
                        JOINT LeftWrist
                        {
                            OFFSET  28.869000   0.000037  -0.000114
                            CHANNELS 3 Zrotation Xrotation Yrotation
                            JOINT LeftFinger0
                            {
                                OFFSET   2.044650  -2.323450   3.252850
                                CHANNELS 3 Zrotation Xrotation Yrotation
                                JOINT LeftFinger01
                                {
                                    OFFSET   3.088140   0.000000   0.000000
                                    CHANNELS 3 Zrotation Xrotation Yrotation
                                    JOINT LeftFinger02
                                    {
                                        OFFSET   2.639460   0.000000   0.000000
                                        CHANNELS 3 Zrotation Xrotation Yrotation
                                        End Site
                                        {
                                            OFFSET   2.582190   0.000000   0.000000
                                        }
                                    }
                                }
                            }
                            JOINT LeftFinger1
                            {
                                OFFSET   8.364480   0.000000   3.252850
                                CHANNELS 3 Zrotation Xrotation Yrotation
                                JOINT LeftFinger11
                                {
                                    OFFSET   4.646930   0.000000   0.000000
                                    CHANNELS 3 Zrotation Xrotation Yrotation
                                    JOINT LeftFinger12
                                    {
                                        OFFSET   2.323470   0.000000   0.000000
                                        CHANNELS 3 Zrotation Xrotation Yrotation
                                        End Site
                                        {
                                            OFFSET   2.273050   0.000000   0.000000
                                        }
                                    }
                                }
                            }
                            JOINT LeftFinger2
                            {
                                OFFSET   8.364490   0.000016   1.078090
                                CHANNELS 3 Zrotation Xrotation Yrotation
                                JOINT LeftFinger21
                                {
                                    OFFSET   5.111620   0.000000   0.000000
                                    CHANNELS 3 Zrotation Xrotation Yrotation
                                    JOINT LeftFinger22
                                    {
                                        OFFSET   2.788150   0.000013   0.000000
                                        CHANNELS 3 Zrotation Xrotation Yrotation
                                        End Site
                                        {
                                            OFFSET   2.727660   0.000000   0.000000
                                        }
                                    }
                                }
                            }
                            JOINT LeftFinger3
                            {
                                OFFSET   7.899780   0.000016  -1.078090
                                CHANNELS 3 Zrotation Xrotation Yrotation
                                JOINT LeftFinger31
                                {
                                    OFFSET   4.646930   0.000000   0.000000
                                    CHANNELS 3 Zrotation Xrotation Yrotation
                                    JOINT LeftFinger32
                                    {
                                        OFFSET   2.323470   0.000000   0.000000
                                        CHANNELS 3 Zrotation Xrotation Yrotation
                                        End Site
                                        {
                                            OFFSET   2.273050   0.000000   0.000000
                                        }
                                    }
                                }
                            }
                            JOINT LeftFinger4
                            {
                                OFFSET   7.435080   0.000000  -3.252850
                                CHANNELS 3 Zrotation Xrotation Yrotation
                                JOINT LeftFinger41
                                {
                                    OFFSET   3.717550   0.000000   0.000000
                                    CHANNELS 3 Zrotation Xrotation Yrotation
                                    JOINT LeftFinger42
                                    {
                                        OFFSET   1.858760   0.000000   0.000000
                                        CHANNELS 3 Zrotation Xrotation Yrotation
                                        End Site
                                        {
                                            OFFSET   1.818440   0.000000   0.000000
                                        }
                                    }
                                }
                            }
                        }
                    }
                }
            }
            JOINT RightCollar
            {
                OFFSET  -3.911900  19.017000  -0.467064
                CHANNELS 3 Zrotation Xrotation Yrotation
                JOINT RightShoulder
                {
                    OFFSET -10.383700   0.000000   0.000000
                    CHANNELS 3 Zrotation Xrotation Yrotation
                    JOINT RightElbow
                    {
                        OFFSET -26.662100   0.001633   0.000260
                        CHANNELS 3 Zrotation Xrotation Yrotation
                        JOINT RightWrist
                        {
                            OFFSET -28.869000  -0.000045  -0.000080
                            CHANNELS 3 Zrotation Xrotation Yrotation
                            JOINT RightFinger0
                            {
                                OFFSET  -2.044660  -2.323490   3.252850
                                CHANNELS 3 Zrotation Xrotation Yrotation
                                JOINT RightFinger01
                                {
                                    OFFSET  -3.088140   0.000000   0.000000
                                    CHANNELS 3 Zrotation Xrotation Yrotation
                                    JOINT RightFinger02
                                    {
                                        OFFSET  -2.639450   0.000000   0.000000
                                        CHANNELS 3 Zrotation Xrotation Yrotation
                                        End Site
                                        {
                                            OFFSET  -2.582190   0.000000   0.000000
                                        }
                                    }
                                }
                            }
                            JOINT RightFinger1
                            {
                                OFFSET  -8.364480   0.000000   3.252850
                                CHANNELS 3 Zrotation Xrotation Yrotation
                                JOINT RightFinger11
                                {
                                    OFFSET  -4.646920   0.000000   0.000000
                                    CHANNELS 3 Zrotation Xrotation Yrotation
                                    JOINT RightFinger12
                                    {
                                        OFFSET  -2.323470   0.000000   0.000000
                                        CHANNELS 3 Zrotation Xrotation Yrotation
                                        End Site
                                        {
                                            OFFSET  -2.273050   0.000000   0.000000
                                        }
                                    }
                                }
                            }
                            JOINT RightFinger2
                            {
                                OFFSET  -8.364480   0.000000   1.078090
                                CHANNELS 3 Zrotation Xrotation Yrotation
                                JOINT RightFinger21
                                {
                                    OFFSET  -5.111610   0.000000   0.000000
                                    CHANNELS 3 Zrotation Xrotation Yrotation
                                    JOINT RightFinger22
                                    {
                                        OFFSET  -2.788160   0.000000   0.000000
                                        CHANNELS 3 Zrotation Xrotation Yrotation
                                        End Site
                                        {
                                            OFFSET  -2.727660   0.000000   0.000000
                                        }
                                    }
                                }
                            }
                            JOINT RightFinger3
                            {
                                OFFSET  -7.899780   0.000000  -1.078090
                                CHANNELS 3 Zrotation Xrotation Yrotation
                                JOINT RightFinger31
                                {
                                    OFFSET  -4.646930   0.000000   0.000000
                                    CHANNELS 3 Zrotation Xrotation Yrotation
                                    JOINT RightFinger32
                                    {
                                        OFFSET  -2.323470   0.000000   0.000000
                                        CHANNELS 3 Zrotation Xrotation Yrotation
                                        End Site
                                        {
                                            OFFSET  -2.273050   0.000000   0.000000
                                        }
                                    }
                                }
                            }
                            JOINT RightFinger4
                            {
                                OFFSET  -7.435090   0.000000  -3.252850
                                CHANNELS 3 Zrotation Xrotation Yrotation
                                JOINT RightFinger41
                                {
                                    OFFSET  -3.717550   0.000000   0.000000
                                    CHANNELS 3 Zrotation Xrotation Yrotation
                                    JOINT RightFinger42
                                    {
                                        OFFSET  -1.858760   0.000000   0.000000
                                        CHANNELS 3 Zrotation Xrotation Yrotation
                                        End Site
                                        {
                                            OFFSET  -1.818440   0.000000   0.000000
                                        }
                                    }
                                }
                            }
                        }
                    }
                }
            }
        }
    }
    JOINT LeftHip
    {
        OFFSET   9.782990   0.000000   0.000000
        CHANNELS 3 Zrotation Xrotation Yrotation
        JOINT LeftKnee
        {
            OFFSET  -0.000063 -41.789100   0.001657
            CHANNELS 3 Zrotation Xrotation Yrotation
            JOINT LeftAnkle
            {
                OFFSET   0.000078 -41.133200  -0.000113
                CHANNELS 3 Zrotation Xrotation Yrotation
                JOINT LeftToe
                {
                    OFFSET   0.000000  -6.358970  14.674500
                    CHANNELS 3 Zrotation Xrotation Yrotation
                    End Site
                    {
                        OFFSET   0.000000   0.000000   3.913200
                    }
                }
            }
        }
    }
    JOINT RightHip
    {
        OFFSET  -9.782990   0.000000   0.000000
        CHANNELS 3 Zrotation Xrotation Yrotation
        JOINT RightKnee
        {
            OFFSET   0.000053 -41.789200   0.000277
            CHANNELS 3 Zrotation Xrotation Yrotation
            JOINT RightAnkle
            {
                OFFSET   0.000030 -41.133200  -0.000150
                CHANNELS 3 Zrotation Xrotation Yrotation
                JOINT RightToe
                {
                    OFFSET   0.000000  -6.358960  14.674500
                    CHANNELS 3 Zrotation Xrotation Yrotation
                    End Site
                    {
                        OFFSET   0.000000   0.000000   3.913200
                    }
                }
            }
        }
    }
}
MOTION
Frames: 6
Frame Time:   0.016667
 -2.633420  89.479000  -0.292403  -3.710270 -12.507400  -5.478140   0.434390   7.623190   2.058300   0.597413  15.257100   4.113150   1.547190  -1.198750   0.030894   2.545890  -2.425920   0.489252  -5.503760  -1.981230   3.130260 -71.649900  20.251200  -7.496400  -0.296091  -1.905950 -17.818600  11.370800  -4.020190   4.580060  41.940700  38.634700 -70.513600 -32.232000   0.000000   0.000075 -11.116000   0.001557  -0.000000 -30.821400   5.246960  -8.712090 -25.545500   0.008202   0.000833 -17.881800   0.011865   0.000457 -28.233900  -1.838080   3.418350 -34.127200  -0.000704   0.001640 -22.719700   0.011033  -0.000826 -27.842500  -1.814390   3.430960 -31.330700  -0.009925   0.000404 -20.857200   0.000568   0.000218 -28.928000  -1.879320   3.395870 -43.475500  -0.002109   0.000180 -28.954700  -0.000313  -0.009953  10.758600   0.473019   9.399640  67.845900   4.418600  -3.322510  -3.865960  -7.986030  16.383300 -10.054900   0.172493   2.712660 -38.552300  35.508000  66.407000  34.518100   0.001886  -0.002215  12.252700  -0.000528  -0.005698  33.753000  11.016100  15.954100  28.883600  -0.001961   0.001945  20.218500  -0.002673   0.001290  38.103500   4.748040   6.020940  54.227400  -0.001402  -0.000989  36.757800   0.003053   0.003682  35.539700   2.991460   4.185720  53.480300   0.002835   0.001344  35.613200   0.002833   0.001837  46.773500  -3.296800  -3.091410  70.293200  -0.012012   0.002477  46.815300   0.001384   0.000901   4.554970  15.238300   6.432280   1.811660   0.111731   4.563070  -3.270810  -2.704240  -0.199181  -0.000000   0.000000   0.000000   4.615880  13.863900   1.035610   0.118647   2.577020  -8.774880  -1.013380  -4.599570   0.847806   0.000000   0.000000   0.000000
 -2.624770  89.478900  -0.311681  -3.706530 -12.522000  -5.455900   0.432475   7.632750   2.068880   0.591698  15.276100   4.134940   1.547190  -1.193130   0.030889   2.545030  -2.414370   0.461199  -5.503530  -1.987930   3.130270 -71.653200  20.238000  -7.491680  -0.301821  -1.913870 -17.808200  11.375700  -4.006450   4.579970  41.972400  38.667900 -70.561900 -32.214400   0.000000   0.000038 -11.107200   0.001556   0.000000 -30.818400   5.260470  -8.736070 -25.545500   0.008202   0.000834 -17.881800   0.011867   0.000461 -28.235400  -1.825620   3.395390 -34.125700  -0.000708   0.001640 -22.721200   0.011036  -0.000825 -27.844000  -1.802030   3.407940 -31.323900  -0.009932   0.000405 -20.857200   0.000564   0.000219 -28.919600  -1.865920   3.373420 -43.462000  -0.002110   0.000181 -28.945600  -0.000313  -0.009951  10.760700   0.460811   9.399640  67.840700   4.437270  -3.322590  -3.852130  -7.993960  16.364600 -10.069000   0.172738   2.724260 -38.555600  35.508200  66.412800  34.513800   0.001895  -0.002208  12.252700  -0.000529  -0.005702  33.760100  11.016300  15.950300  28.889000  -0.001945   0.001930  20.222300  -0.002680   0.001281  38.104400   4.748030   6.019830  54.227300  -0.001383  -0.001001  36.759600   0.003045   0.003659  35.544000   2.991600   4.184050  53.483700   0.002839   0.001358  35.617500   0.002835   0.001828  46.772700  -3.297860  -3.091360  70.292200  -0.012004   0.002457  46.814600   0.001375   0.000892   4.558890  15.231400   6.420160   1.807350   0.121550   4.557250  -3.270560  -2.696560  -0.199235   0.000000   0.000000   0.000000   4.606820  13.866000   1.027620   0.117952   2.572060  -8.770010  -1.008830  -4.585890   0.826281  -0.000000   0.000000  -0.000000
 -2.610950  89.478800  -0.344023  -3.701250 -12.547000  -5.422260   0.429417   7.648640   2.086310   0.582526  15.307800   4.170800   1.547190  -1.182700   0.030884   2.544680  -2.393050   0.428312  -5.503020  -2.000590   3.130280 -71.659200  20.216400  -7.482090  -0.310199  -1.921920 -17.785400  11.379900  -3.984670   4.579830  42.012400  38.710800 -70.632600 -32.196900   0.000000  -0.000000 -11.098400   0.001552  -0.000000 -30.817200   5.279490  -8.768720 -25.545500   0.008204   0.000839 -17.881800   0.011869   0.000469 -28.237300  -1.809490   3.365130 -34.124200  -0.000719   0.001641 -22.726700   0.011045  -0.000821 -27.845900  -1.786060   3.377610 -31.317200  -0.009949   0.000405 -20.857200   0.000552   0.000224 -28.911600  -1.849050   3.343570 -43.448400  -0.002113   0.000183 -28.936600  -0.000313  -0.009949  10.764200   0.439638   9.399630  67.833300   4.471460  -3.322750  -3.833840  -8.016910  16.346500 -10.086600   0.174461   2.747060 -38.558200  35.505500  66.422700  34.505400   0.001910  -0.002192  12.252700  -0.000533  -0.005713  33.773400  11.016600  15.943600  28.899100  -0.001913   0.001900  20.229400  -0.002702   0.001255  38.110500   4.748020   6.016890  54.227100  -0.001338  -0.001035  36.764500   0.003023   0.003603  35.553100   2.991740   4.180500  53.493400   0.002851   0.001393  35.626600   0.002840   0.001810  46.771900  -3.300530  -3.091240  70.291200  -0.011986   0.002406  46.814000   0.001353   0.000867   4.564280  15.224700   6.402330   1.800680   0.131370   4.547520  -3.269640  -2.680010  -0.199625   0.000000   0.000000   0.000000   4.597720  13.870500   1.019640   0.116794   2.564100  -8.765120  -1.001620  -4.562660   0.804746  -0.000000   0.000000   0.000000
 -2.600990  89.478700  -0.370328  -3.700300 -12.568500  -5.402450   0.427312   7.661280   2.100220   0.575898  15.333100   4.199380   1.548470  -1.172780   0.030893   2.546490  -2.372910   0.422670  -5.502460  -2.014620   3.126670 -71.665200  20.200500  -7.470480  -0.315736  -1.922090 -17.756400  11.379000  -3.971450   4.589370  42.012700  38.721300 -70.669700 -32.198000   0.000000   0.000044 -11.099000   0.001542   0.000000 -30.827000   5.288040  -8.779440 -25.553500   0.008206   0.000854 -17.887400   0.011868   0.000479 -28.237800  -1.805220   3.356620 -34.143100  -0.000734   0.001641 -22.741300   0.011061  -0.000811 -27.846500  -1.781850   3.369070 -31.331400  -0.009973   0.000403 -20.866600   0.000534   0.000233 -28.917300  -1.845000   3.334940 -43.456400  -0.002117   0.000184 -28.942000  -0.000313  -0.009948  10.769700   0.421817   9.399410  67.831500   4.509380  -3.324620  -3.822000  -8.059220  16.351700 -10.091800   0.198731   2.772300 -38.553600  35.496200  66.432900  34.497700   0.001923  -0.002169  12.249900  -0.000546  -0.005730  33.788400  11.017000  15.937100  28.910800  -0.001871   0.001860  20.237500  -0.002745   0.001214  38.132300   4.748020   6.012250  54.227100  -0.001271  -0.001087  36.772200   0.002985   0.003519  35.565600   2.991480   4.175520  53.511700   0.002870   0.001442  35.639000   0.002849   0.001783  46.782600  -3.305180  -3.091080  70.307300  -0.011957   0.002329  46.824700   0.001318   0.000823   4.566520  15.226600   6.392890   1.796270   0.126340   4.539550  -3.268000  -2.656920  -0.202581  -0.000000   0.000000   0.000000   4.598630  13.876900   1.036620   0.116540   2.556900  -8.794110  -0.998149  -4.542520   0.804875   0.000000   0.000000   0.000000
 -2.592030  89.478700  -0.396920  -3.702250 -12.590200  -5.386890   0.425448   7.673790   2.113060   0.569854  15.358100   4.225780   1.550370  -1.160340   0.030909   2.548640  -2.347750   0.421857  -5.501910  -2.028920   3.120930 -71.671800  20.184400  -7.457390  -0.322229  -1.922330 -17.720600  11.374800  -3.955820   4.598890  42.002600  38.720200 -70.686000 -32.202300  -0.000000   0.000088 -11.101200   0.001531   0.000000 -30.835100   5.291070  -8.781480 -25.561400   0.008211   0.000876 -17.892900   0.011866   0.000492 -28.237900  -1.804610   3.355400 -34.162000  -0.000755   0.001643 -22.751900   0.011084  -0.000799 -27.846500  -1.781250   3.367850 -31.345500  -0.010008   0.000401 -20.876100   0.000510   0.000245 -28.922600  -1.844420   3.333710 -43.464400  -0.002120   0.000185 -28.947300  -0.000313  -0.009948  10.779600   0.401297   9.399190  67.829400   4.542700  -3.336650  -3.812770  -8.106620  16.377600 -10.094500   0.238813   2.802240 -38.551400  35.486700  66.441900  34.484800   0.001934  -0.002142  12.242400  -0.000560  -0.005753  33.802800  11.017500  15.931100  28.922000  -0.001819   0.001815  20.245400  -0.002796   0.001162  38.165100   4.748020   6.006290  54.227000  -0.001186  -0.001154  36.782100   0.002938   0.003414  35.578300   2.990940   4.170690  53.531000   0.002894   0.001507  35.651600   0.002860   0.001751  46.797200  -3.309630  -3.090920  70.329300  -0.011920   0.002233  46.839300   0.001276   0.000770   4.568060  15.228500   6.386230   1.792020   0.121309   4.531690  -3.265630  -2.633360  -0.207259  -0.000000   0.000000  -0.000000   4.604680  13.883100   1.062630   0.114792   2.552550  -8.842350  -0.995573  -4.523150   0.805914  -0.000000   0.000000  -0.000000
 -2.584190  89.478800  -0.423683  -3.706690 -12.610600  -5.374850   0.423723   7.685630   2.124160   0.564625  15.381700   4.248600   1.551310  -1.143380   0.030925   2.550080  -2.313570   0.426172  -5.499730  -2.040530   3.115970 -71.679400  20.164800  -7.443880  -0.334395  -1.934220 -17.677500  11.356800  -3.930610   4.596780  41.991000  38.714000 -70.681400 -32.214500   0.000000   0.000044 -11.107200   0.001524  -0.000000 -30.836000   5.286500  -8.774200 -25.561200   0.008221   0.000898 -17.892700   0.011866   0.000510 -28.237500  -1.808190   3.362080 -34.161600  -0.000781   0.001650 -22.751700   0.011113  -0.000789 -27.846100  -1.784780   3.374550 -31.345500  -0.010054   0.000402 -20.876100   0.000483   0.000258 -28.920300  -1.847800   3.340500 -43.461100  -0.002122   0.000187 -28.945100  -0.000314  -0.009945  10.792900   0.375075   9.405750  67.823800   4.556270  -3.366510  -3.821140  -8.145520  16.441700 -10.076400   0.283440   2.837120 -38.559800  35.475900  66.435400  34.459400   0.001941  -0.002115  12.229700  -0.000569  -0.005779  33.808700  11.018900  15.928500  28.926900  -0.001758   0.001771  20.248800  -0.002840   0.001099  38.199600   4.748020   5.999590  54.228300  -0.001084  -0.001232  36.793200   0.002888   0.003292  35.586900   2.990340   4.168240  53.543900   0.002921   0.001586  35.660200   0.002871   0.001717  46.802100  -3.311360  -3.090810  70.336600  -0.011875   0.002127  46.844100   0.001230   0.000717   4.569720  15.222900   6.382870   1.786130   0.130590   4.522440  -3.262330  -2.617770  -0.212163   0.000000   0.000000   0.000000   4.619630  13.885600   1.076900   0.103692   2.555090  -8.880210  -0.991480  -4.507180   0.815759  -0.000000   0.000000   0.000000
